<svg
  id="leaves"
  width="658"
  height="96"
  viewBox="0 0 658 96"
  fill="none"
  xmlns="http://www.w3.org/2000/svg"
>
  <g clip-path="url(#a)">
    <path
      fill="currentColor"
      d="M22.715 41.975c-.287-.038-1.675 2.147-5.745 4.804-1.979 1.29-7.346 5.192-4.137 13.7l-1.832 2.22 1.19 1.007c1.723-2.272 6.867-7.354 10.425-16.881 0 0 .788 5.149-7.887 15.45 4.4.571 9.612-1.325 11.892-7.435s-3.906-12.865-3.906-12.865"
      opacity=".85"
    />
    <path
      fill="currentColor"
      d="M36.089 47.412c-.194-.371-3.936-.203-10.465-2.824-3.173-1.273-12.255-4.398-19.678 6.47l-4.153-.329-.206 2.246c4.125.156 14.42 2.037 28.67-1.654 0 0-5.451 5.209-24.865 3.475 2.976 5.693 9.55 10.296 18.686 7.927s12.01-15.312 12.01-15.312"
      opacity=".5"
    />
    <path
      fill="currentColor"
      d="M24.538 51.416c-.233-.072-1.703 1.536-5.467 3.144-1.83.782-6.852 3.232-5.434 10.758l-1.844 1.573.839 1.009c1.761-1.633 6.77-5.095 11.115-12.476 0 0-.1 4.386-8.8 11.66 3.566 1.117 8.164.306 10.949-4.427 2.783-4.733-1.358-11.24-1.358-11.24"
      opacity=".75"
    />
    <path
      fill="currentColor"
      d="M51.09 62.021c-.107-.482-4.43-1.435-11.082-6.424-3.233-2.424-12.645-8.769-24.443 1.368l-4.64-1.647-.923 2.5c4.662 1.44 15.839 6.737 33.235 6.883 0 0-7.816 4.278-29.447-3.64 1.655 7.409 7.752 14.675 18.906 14.765S51.09 62.021 51.09 62.021"
      opacity=".3"
    />
    <path
      fill="currentColor"
      d="M58.37 33.223c-.312.07-.928 2.863-4.151 7.16-1.567 2.09-5.667 8.17.883 15.794l-1.064 2.999 1.616.596c.93-3.012 4.352-10.234 4.447-21.475 0 0 2.764 5.05-2.352 19.028 4.787-1.07 9.482-5.01 9.54-12.217.059-7.207-8.92-11.885-8.92-11.885"
      opacity=".9"
    />
    <path
      fill="currentColor"
      d="M78.712 36.803c-.325-.298-3.973 1.218-11.388.976-3.604-.117-13.73.062-17.166 13.51l-4.235 1.17.606 2.3c4.144-1.332 15.024-3.182 27.814-11.979 0 0-3.523 7.128-23.387 12.412 5.002 4.568 13.177 6.758 21.377 1.115 8.198-5.642 6.38-19.504 6.38-19.504"
      opacity=".6"
    />
    <path
      fill="currentColor"
      d="M47.356 44.51c-.23.12-.126 2.433-1.746 6.47-.787 1.96-2.718 7.575 4 12.164l-.203 2.567 1.388.128c.096-2.55 1.26-8.914-1.022-17.724 0 0 3.22 3.37 2.147 15.371 3.52-1.84 6.365-5.903 4.901-11.551s-9.465-7.425-9.465-7.425"
      opacity=".4"
    />
    <path
      fill="currentColor"
      d="M77.21 70.203c.068-.528-3.956-3.085-8.85-10.583C65.98 55.976 58.794 46.088 43.12 52l-4.09-3.374-1.854 2.19c4.187 3.174 13.547 12.65 31.098 19.205 0 0-9.485 1.45-28.46-14.529-1.053 8.108 2.44 17.706 13.695 21.906 11.254 4.2 23.7-7.195 23.7-7.195"
      opacity=".75"
    />
    <path
      fill="currentColor"
      d="M97.277 43.23c-.342-.014-1.754 2.706-6.282 6.26-2.2 1.728-8.13 6.884-3.465 16.59l-1.932 2.808 1.506 1.065c1.799-2.859 7.343-9.384 10.557-20.991 0 0 1.46 5.993-7.71 19.04 5.251.22 11.202-2.555 13.262-9.998 2.058-7.442-5.936-14.774-5.936-14.774"
      opacity=".55"
    />
    <path
      fill="currentColor"
      d="M104.018 49.699c-.119-.377-3.631-.835-9.28-4.347-2.745-1.707-10.688-6.107-19.384 2.794l-3.813-.989-.561 2.057c3.815.823 13.092 4.264 26.966 3.168 0 0-5.93 3.954-23.722-.848 1.836 5.79 7.201 11.155 16.097 10.45 8.896-.707 13.697-12.285 13.697-12.285"
      opacity=".9"
    />
    <path
      fill="currentColor"
      d="M84.72 44.89c-.23.147.093 2.578-1.243 6.985-.65 2.141-2.169 8.241 5.342 12.462l.022 2.726 1.476.007c-.134-2.699.505-9.519-2.714-18.6 0 0 3.707 3.257 3.684 16.015 3.542-2.265 6.169-6.814 4.103-12.637-2.066-5.822-10.67-6.958-10.67-6.958"
      opacity=".35"
    />
    <path
      fill="currentColor"
      d="M105.931 71.69c.137-.435-2.879-3.192-5.894-10.25-1.466-3.43-6.06-12.846-20.17-10.188l-2.95-3.458-1.892 1.573c3.062 3.303 9.552 12.695 23.392 20.84 0 0-8.223-.187-21.86-16.5-2.097 6.687-.577 15.31 8.298 20.53s21.076-2.547 21.076-2.547M166.77 62.44c.137-.434-2.879-3.191-5.894-10.25-1.466-3.43-6.061-12.845-20.171-10.187l-2.949-3.458-1.892 1.573c3.062 3.302 9.552 12.695 23.392 20.84 0 0-8.223-.187-21.861-16.5-2.096 6.687-.576 15.309 8.299 20.53 8.875 5.22 21.076-2.547 21.076-2.547"
      opacity=".7"
    />
    <path
      fill="currentColor"
      d="M132.771 16.877c-.365.016-1.612 3.038-6.093 7.236-2.177 2.04-7.999 8.07-2.14 17.95l-1.792 3.164 1.7.992c1.645-3.206 6.93-10.655 9.267-23.287 0 0 2.108 6.232-6.423 20.948 5.6-.254 11.666-3.756 13.162-11.856s-7.681-15.147-7.681-15.147"
      opacity=".5"
    />
    <path
      fill="currentColor"
      d="M114.965 62.724c-.205-.224-2.803.598-7.883-.014-2.468-.297-9.436-.783-12.605 8.25l-2.98.55.278 1.616c2.927-.666 10.513-1.283 19.829-6.558 0 0-2.849 4.685-16.813 7.121 3.162 3.44 8.647 5.436 14.619 2.052s5.555-13.017 5.555-13.017"
      opacity=".8"
    />
    <path
      fill="currentColor"
      d="M137.973 11.266c-.319.294.853 3.994-.019 11.234-.423 3.517-1.115 13.447 11.756 17.963l.784 4.245 2.303-.395c-.95-4.172-1.829-14.982-9.345-28.257 0 0 6.675 4.06 10.147 23.959 4.901-4.506 7.746-12.322 2.924-20.832s-18.55-7.917-18.55-7.917"
      opacity=".45"
    />
    <path
      fill="currentColor"
      d="M147.757 62.63c-.033-.248-2.177-.921-5.321-3.739-1.527-1.369-6.006-4.994-12.422-.39l-2.274-1.037-.577 1.223c2.294.935 7.712 4.108 16.504 4.952 0 0-4.142 1.817-14.732-3.144.509 3.82 3.271 7.765 8.909 8.304 5.637.54 9.913-6.168 9.913-6.168"
      opacity=".65"
    />
    <path
      fill="currentColor"
      d="M144.172 42.354c-.216-.127-2.067 1.148-6.222 1.89-2.02.361-7.634 1.66-7.956 9.55l-2.217 1.152.608 1.209c2.149-1.233 7.985-3.549 14.063-9.958 0 0-1.118 4.384-11.547 9.674 3.324 1.95 8.132 2.203 12.028-1.907s1.243-11.61 1.243-11.61"
      opacity=".65"
    />
    <path
      fill="currentColor"
      d="M178.768 23.006c-.468-.103-3.075 3.304-10.182 7.104-3.454 1.847-12.883 7.515-8.811 22.031l-3.347 3.402 1.818 1.834c3.175-3.504 12.405-11.153 19.659-26.375 0 0 .556 8.618-15.259 24.377 7.186 1.58 16.066-.799 20.714-10.56 4.648-9.76-4.592-21.813-4.592-21.813"
      opacity=".9"
    />
    <path
      fill="currentColor"
      d="M149.018 69.96c-.114-.273-2.768-.386-7.218-2.64-2.163-1.096-8.385-3.865-14.3 3.354l-2.913-.49-.285 1.574c2.904.365 10.06 2.33 20.355.604 0 0-4.173 3.342-17.779.917 1.75 4.206 6.109 7.864 12.71 6.755 6.599-1.109 9.43-10.074 9.43-10.074"
      opacity=".4"
    />
    <path
      fill="currentColor"
      d="M178.626 21.839c-.351.145-.495 3.548-3.386 9.253-1.405 2.773-4.954 10.75 4.301 18.334l-.628 3.735 2.018.365c.468-3.724 2.987-12.898.774-26.096 0 0 4.285 5.35 1.176 22.794 5.392-2.244 10.081-7.833 8.66-16.295-1.422-8.462-12.915-12.09-12.915-12.09"
      opacity=".75"
    />
    <path
      fill="currentColor"
      d="M182.593 54.342c.022-.516-4.088-2.65-9.459-9.492-2.61-3.325-10.403-12.285-25.07-5.236l-4.243-2.92-1.609 2.276c4.32 2.718 14.181 11.096 31.72 15.953 0 0-9.056 2.207-28.771-11.65-.333 7.935 3.86 16.927 15.107 20.04 11.246 3.11 22.325-8.97 22.325-8.97M134.672 58.655c.022-.517-4.088-2.65-9.46-9.493-2.61-3.325-10.402-12.285-25.069-5.236l-4.243-2.92-1.61 2.276c4.321 2.718 14.181 11.096 31.721 15.954 0 0-9.057 2.206-28.771-11.651-.334 7.935 3.86 16.928 15.107 20.04 11.246 3.11 22.325-8.97 22.325-8.97"
      opacity=".55"
    />
    <path
      fill="currentColor"
      d="M174.765 41.407c-.324.044-1.201 2.838-4.872 6.934-1.784 1.99-6.508 7.827-.508 16.187l-1.353 2.963 1.595.752c1.218-2.99 5.352-10.05 6.451-21.506 0 0 2.369 5.398-4.096 19.197 4.978-.664 10.118-4.263 10.821-11.608s-8.038-12.919-8.038-12.919"
      opacity=".85"
    />
    <path
      fill="currentColor"
      d="M205.993 57.797c-.259-.338-3.982.492-10.992-.98-3.407-.717-13.066-2.244-18.587 9.966l-4.223.404.19 2.288c4.164-.572 14.82-.507 28.456-6.727 0 0-4.545 6.186-24.318 7.88 3.99 5.183 11.396 8.636 20.139 4.645 8.741-3.99 9.335-17.476 9.335-17.476"
      opacity=".4"
    />
    <path
      fill="currentColor"
      d="M200.82 15.514c-.19.208.777 2.535.623 7.265-.075 2.299.039 8.759 8.618 10.951l.747 2.701 1.467-.386c-.85-2.644-2.03-9.585-7.642-17.744 0 0 4.547 2.248 7.918 14.92 2.914-3.191 4.311-8.406.712-13.637s-12.443-4.07-12.443-4.07"
      opacity=".7"
    />
    <path
      fill="currentColor"
      d="M216.212 64.903c-.374-.287-4.117 1.667-12.037 2.1-3.848.211-14.615 1.346-17.021 15.986l-4.4 1.642.859 2.392c4.289-1.805 15.703-4.788 28.503-15.348 0 0-3.088 7.918-23.748 15.396 5.752 4.398 14.662 5.97 22.868-.803s4.976-21.365 4.976-21.365M55.467 26.44c-.375-.286-4.118 1.669-12.037 2.102-3.848.21-14.615 1.345-17.021 15.985l-4.4 1.642.858 2.393c4.29-1.806 15.703-4.789 28.504-15.348 0 0-3.088 7.918-23.748 15.395 5.752 4.399 14.661 5.97 22.867-.803 8.205-6.773 4.977-21.365 4.977-21.365M-16.414 48.44c.374-.286 4.117 1.669 12.036 2.102 3.849.21 14.616 1.345 17.022 15.985l4.4 1.642-.86 2.393C11.897 68.756.483 65.773-12.318 55.214c0 0 3.088 7.918 23.748 15.395-5.752 4.399-14.661 5.97-22.867-.803-8.205-6.773-4.976-21.365-4.976-21.365"
      opacity=".5"
    />
    <path
      fill="currentColor"
      d="M224.025 22.278c-.341.108-.755 3.282-3.929 8.388-1.543 2.482-5.52 9.66 2.525 17.52l-.893 3.447 1.859.507c.744-3.449 3.854-11.833 2.863-24.374 0 0 3.574 5.36-.766 21.441 5.233-1.659 10.082-6.508 9.444-14.549-.638-8.04-11.103-12.38-11.103-12.38"
      opacity=".9"
    />
    <path
      fill="currentColor"
      d="M229.125 49.223c-.019-.41-3.418-1.814-8.141-6.855-2.295-2.45-9.079-8.998-20.195-2.407l-3.558-2.017-1.116 1.913c3.606 1.85 11.986 7.796 26.198 10.425 0 0-7.012 2.372-23.567-7.226.285 6.3 4.225 13.124 13.338 14.808 9.112 1.682 17.041-8.641 17.041-8.641"
      opacity=".35"
    />
    <path
      fill="currentColor"
      d="M224.082 44.554c-.309-.04-1.807 2.317-6.199 5.183-2.134 1.393-7.925 5.603-4.463 14.783l-1.976 2.395 1.282 1.086c1.86-2.452 7.41-7.934 11.25-18.214 0 0 .849 5.556-8.51 16.67 4.748.617 10.37-1.43 12.83-8.022 2.46-6.591-4.214-13.88-4.214-13.88"
      opacity=".65"
    />
    <path
      fill="currentColor"
      d="M238.992 72.072c.108-.49-3.462-3.222-7.443-10.668-1.934-3.618-7.872-13.496-23.079-9.23l-3.564-3.506-1.922 1.904c3.672 3.326 11.685 12.996 27.631 20.595 0 0-9.028.583-25.537-15.985-1.656 7.528.836 16.83 11.062 21.7s22.852-4.81 22.852-4.81"
      opacity=".8"
    />
    <path
      fill="currentColor"
      d="M252.649 17.134c-.236.123-.129 2.504-1.797 6.66-.81 2.018-2.799 7.798 4.118 12.522l-.21 2.642 1.429.132c.099-2.625 1.296-9.177-1.052-18.245 0 0 3.314 3.469 2.211 15.823 3.622-1.893 6.552-6.077 5.044-11.891-1.507-5.814-9.743-7.643-9.743-7.643"
      opacity=".45"
    />
    <path
      fill="currentColor"
      d="M253.016 70.583c-.242-.378-4.225.151-11.448-2.039-3.509-1.064-13.507-3.554-20.423 8.755l-4.469.036-.011 2.419c4.423-.219 15.6.828 30.484-4.448 0 0-5.339 6.076-26.247 6.038 3.712 5.806 11.168 10.11 20.71 6.724s11.404-17.485 11.404-17.485"
      opacity=".7"
    />
    <path
      fill="currentColor"
      d="M247.233 75.062c.241.378 4.224-.151 11.447 2.039 3.51 1.064 13.507 3.554 20.424-8.755l4.468-.036.011-2.419c-4.423.219-15.6-.829-30.484 4.448 0 0 5.339-6.076 26.247-6.038-3.712-5.806-11.167-10.11-20.71-6.725-9.541 3.386-11.403 17.486-11.403 17.486"
      opacity=".7"
    />
    <path
      fill="currentColor"
      d="M257.413 48.36c-.241-.378-4.224.151-11.447-2.039-3.51-1.064-13.507-3.554-20.424 8.754l-4.468.037-.011 2.419c4.423-.219 15.6.828 30.484-4.448 0 0-5.339 6.075-26.247 6.038 3.712 5.805 11.168 10.11 20.71 6.724 9.541-3.386 11.403-17.485 11.403-17.485"
      opacity=".7"
    />
    <path
      fill="currentColor"
      d="M276.215 41.71c-.319-.1-2.341 2.111-7.517 4.322-2.515 1.075-9.42 4.445-7.471 14.792l-2.536 2.163 1.154 1.387c2.422-2.245 9.309-7.005 15.283-17.154 0 0-.138 6.03-12.1 16.031 4.903 1.538 11.226.423 15.055-6.086 3.827-6.508-1.868-15.455-1.868-15.455M197.032 39.584c-.319-.1-2.341 2.112-7.517 4.323-2.515 1.074-9.42 4.444-7.471 14.792l-2.535 2.163 1.153 1.387c2.422-2.245 9.31-7.005 15.283-17.154 0 0-.137 6.03-12.1 16.031 4.903 1.537 11.226.422 15.055-6.086s-1.868-15.456-1.868-15.456"
      opacity=".55"
    />
    <path
      fill="currentColor"
      d="M280.639 48.458c-.088-.394-3.613-1.17-9.037-5.238-2.635-1.977-10.309-7.15-19.93 1.114l-3.783-1.342-.752 2.039c3.801 1.174 12.914 5.492 27.099 5.611 0 0-6.373 3.488-24.011-2.967 1.35 6.04 6.321 11.965 15.416 12.04 9.094.072 14.998-11.257 14.998-11.257"
      opacity=".9"
    />
    <path
      fill="currentColor"
      d="M260.876 41.29c-.229.176.334 2.702-.666 7.459-.486 2.311-1.522 8.866 6.764 12.612l.274 2.866 1.552-.13c-.388-2.825-.344-10.055-4.564-19.308 0 0 4.197 3.084 5.347 16.501 3.516-2.707 5.86-7.733 3.152-13.665s-11.859-6.336-11.859-6.336"
      opacity=".4"
    />
    <path
      fill="currentColor"
      d="M306.189 46.62c-.314-.341-4.275.913-12.022-.02-3.764-.454-14.391-1.194-19.223 12.58l-4.544.84.423 2.464c4.465-1.016 16.033-1.957 30.24-10.001 0 0-4.345 7.144-25.64 10.86 4.822 5.245 13.186 8.289 22.294 3.128 9.107-5.16 8.472-19.85 8.472-19.85"
      opacity=".75"
    />
    <path
      fill="currentColor"
      d="M306.891 35.072c-.342.076-1.016 3.136-4.546 7.843-1.716 2.288-6.206 8.949.967 17.298l-1.165 3.284 1.769.653c1.02-3.299 4.768-11.209 4.871-23.52 0 0 3.027 5.531-2.576 20.84 5.243-1.172 10.385-5.486 10.449-13.38s-9.769-13.018-9.769-13.018"
      opacity=".6"
    />
    <path
      fill="currentColor"
      d="M283.387 49.278c.056-.43-3.221-2.511-7.206-8.617-1.937-2.968-7.789-11.019-20.552-6.205l-3.329-2.748-1.511 1.784c3.41 2.585 11.031 10.3 25.323 15.639 0 0-7.724 1.18-23.174-11.831-.858 6.601 1.986 14.417 11.151 17.837s19.298-5.859 19.298-5.859"
      opacity=".85"
    />
    <path
      fill="currentColor"
      d="M320.068 32.127c-.304-.013-1.559 2.405-5.584 5.565-1.956 1.535-7.226 6.119-3.08 14.746l-1.718 2.496 1.339.947c1.599-2.542 6.527-8.342 9.385-18.66 0 0 1.298 5.328-6.854 16.925 4.668.196 9.958-2.27 11.788-8.886s-5.276-13.133-5.276-13.133"
      opacity=".5"
    />
    <path
      fill="currentColor"
      d="M332.854 49.944c-.147-.464-4.469-1.028-11.422-5.35-3.379-2.1-13.155-7.516-23.857 3.439l-4.693-1.217-.691 2.532c4.696 1.012 16.114 5.248 33.19 3.898 0 0-7.3 4.867-29.196-1.043 2.259 7.125 8.863 13.729 19.811 12.86s16.858-15.119 16.858-15.119"
      opacity=".35"
    />
    <path
      fill="currentColor"
      d="M309.942 38.758c-.243.126-.133 2.575-1.848 6.85-.834 2.076-2.879 8.02 4.235 12.88l-.216 2.718 1.47.135c.102-2.7 1.333-9.439-1.082-18.766 0 0 3.409 3.568 2.274 16.275 3.726-1.948 6.739-6.25 5.189-12.231-1.551-5.98-10.022-7.861-10.022-7.861"
      opacity=".8"
    />
    <path
      fill="currentColor"
      d="M348.536 48.777c-.286-.262-3.493 1.071-10.014.858-3.168-.103-12.073.055-15.094 11.88l-3.723 1.03.532 2.021c3.644-1.172 13.211-2.798 24.458-10.533 0 0-3.099 6.267-20.565 10.913 4.399 4.017 11.587 5.943 18.797.981 7.209-4.961 5.609-17.15 5.609-17.15"
      opacity=".65"
    />
    <path
      fill="currentColor"
      d="M346.159 4.827c-.325.298.868 4.064-.02 11.43-.431 3.58-1.135 13.684 11.962 18.279l.798 4.32 2.344-.403c-.967-4.245-1.861-15.244-9.51-28.753 0 0 6.793 4.132 10.326 24.38 4.987-4.585 7.881-12.538 2.975-21.198s-18.875-8.055-18.875-8.055"
      opacity=".45"
    />
    <path
      fill="currentColor"
      d="M324.108 73.812c.042-.316-2.373-1.85-5.309-6.35-1.427-2.186-5.74-8.118-15.144-4.57l-2.453-2.026-1.113 1.314c2.512 1.905 8.128 7.59 18.659 11.524 0 0-5.691.87-17.076-8.718-.632 4.864 1.464 10.623 8.217 13.144 6.752 2.52 14.219-4.318 14.219-4.318"
      opacity=".9"
    />
    <path
      fill="currentColor"
      d="M375.836 21.75c-.509.023-2.25 4.24-8.505 10.1-3.039 2.848-11.165 11.266-2.987 25.057l-2.501 4.415 2.372 1.385c2.297-4.474 9.673-14.872 12.935-32.505 0 0 2.944 8.7-8.965 29.24 7.817-.354 16.284-5.242 18.372-16.549S375.836 21.75 375.836 21.75"
      opacity=".55"
    />
    <path
      fill="currentColor"
      d="M365.433 41.007c-.013-.281-2.342-1.243-5.578-4.697-1.573-1.678-6.221-6.166-13.837-1.65l-2.439-1.38-.764 1.31c2.471 1.268 8.213 5.341 17.95 7.142 0 0-4.804 1.626-16.148-4.95.196 4.316 2.895 8.992 9.14 10.146 6.243 1.152 11.676-5.921 11.676-5.921"
      opacity=".7"
    />
    <path
      fill="currentColor"
      d="M371.038 43.806c-.408-.09-2.684 2.884-8.889 6.202-3.015 1.612-11.246 6.56-7.692 19.233l-2.922 2.97 1.587 1.601c2.772-3.06 10.83-9.737 17.163-23.026 0 0 .486 7.524-13.321 21.281 6.273 1.38 14.025-.697 18.084-9.219 4.057-8.52-4.01-19.042-4.01-19.042"
      opacity=".4"
    />
    <path
      fill="currentColor"
      d="M372.224 66.013c.11-.349-2.303-2.554-4.715-8.2-1.172-2.745-4.849-10.277-16.137-8.151l-2.359-2.766-1.513 1.258c2.449 2.642 7.641 10.156 18.713 16.672 0 0-6.578-.15-17.489-13.2-1.677 5.35-.46 12.247 6.64 16.424s16.86-2.037 16.86-2.037M404.295 61.813c.11-.348-2.303-2.554-4.715-8.2-1.172-2.744-4.849-10.277-16.137-8.15l-2.359-2.767-1.513 1.258c2.449 2.643 7.641 10.156 18.713 16.673 0 0-6.578-.15-17.489-13.2-1.677 5.349-.46 12.247 6.64 16.423s16.86-2.037 16.86-2.037"
      opacity=".85"
    />
    <path
      fill="currentColor"
      d="M401.332 12.484c-.45.142-.996 4.329-5.183 11.065-2.035 3.273-7.281 12.743 3.331 23.112l-1.178 4.545 2.452.67c.981-4.55 5.084-15.61 3.777-32.153 0 0 4.714 7.072-1.011 28.284 6.903-2.189 13.3-8.586 12.459-19.193-.842-10.605-14.647-16.33-14.647-16.33"
      opacity=".5"
    />
    <path
      fill="currentColor"
      d="M382.092 55.921c-.296-.007-1.479 2.371-5.348 5.52-1.881 1.53-6.941 6.088-2.752 14.428l-1.632 2.462 1.321.9c1.516-2.504 6.221-8.242 8.831-18.349 0 0 1.356 5.171-6.393 16.615 4.554.112 9.668-2.383 11.34-8.864 1.672-6.48-5.367-12.712-5.367-12.712"
      opacity=".75"
    />
    <path
      fill="currentColor"
      d="M406.901 15.884c-.359.229.144 4.01-1.935 10.865-1.01 3.331-3.374 12.82 8.309 19.385l.035 4.242 2.296.01c-.208-4.198.786-14.807-4.222-28.934 0 0 5.767 5.067 5.731 24.912 5.51-3.523 9.596-10.6 6.382-19.657-3.213-9.056-16.596-10.823-16.596-10.823"
      opacity=".35"
    />
    <path
      fill="currentColor"
      d="M417.415 41.259c-.125-.302-3.051-.426-7.958-2.912-2.385-1.208-9.245-4.26-15.767 3.698l-3.212-.54-.314 1.735c3.202.404 11.092 2.57 22.443.666 0 0-4.601 3.685-19.603 1.012 1.929 4.637 6.736 8.67 14.013 7.448 7.277-1.223 10.398-11.107 10.398-11.107"
      opacity=".9"
    />
    <path
      fill="currentColor"
      d="M419.019 44.19c-.49-.064-2.864 3.672-9.827 8.217-3.383 2.209-12.565 8.883-7.075 23.436l-3.134 3.797 2.034 1.722c2.948-3.887 11.747-12.579 17.834-28.876 0 0 1.347 8.808-13.491 26.427 7.528.978 16.441-2.266 20.341-12.717 3.899-10.45-6.682-22.006-6.682-22.006"
      opacity=".6"
    />
    <path
      fill="currentColor"
      d="M424.264 54.439c-.035-.264-2.309-.978-5.643-3.966-1.62-1.452-6.371-5.297-13.176-.414l-2.411-1.1-.613 1.297c2.433.991 8.18 4.357 17.505 5.251 0 0-4.394 1.928-15.625-3.334.54 4.052 3.469 8.236 9.448 8.808s10.515-6.542 10.515-6.542"
      opacity=".45"
    />
    <path
      fill="currentColor"
      d="M434.191 2.079c-.308.336 1.26 4.11 1.01 11.78-.121 3.729.064 14.204 13.975 17.759l1.212 4.38 2.379-.626c-1.379-4.287-3.292-15.542-12.392-28.774 0 0 7.373 3.645 12.839 24.193 4.726-5.174 6.992-13.63 1.154-22.113-5.837-8.481-20.177-6.6-20.177-6.6"
      opacity=".8"
    />
    <path
      fill="currentColor"
      d="M434.241 60.306c-.284-.218-3.122 1.264-9.125 1.592-2.917.16-11.079 1.02-12.903 12.118l-3.336 1.245.651 1.814c3.252-1.37 11.904-3.63 21.608-11.635 0 0-2.341 6.002-18.003 11.67 4.361 3.335 11.115 4.526 17.335-.608s3.773-16.196 3.773-16.196"
      opacity=".55"
    />
    <path
      fill="currentColor"
      d="M459.208 23.62c-.407.055-1.508 3.563-6.118 8.708-2.241 2.5-8.173 9.829-.639 20.327l-1.698 3.721 2.002.945c1.53-3.754 6.722-12.62 8.102-27.007 0 0 2.975 6.778-5.144 24.107 6.252-.833 12.706-5.353 13.589-14.578.882-9.224-10.094-16.222-10.094-16.222"
      opacity=".7"
    />
    <path
      fill="currentColor"
      d="M454.751 44.414c.013-.311-2.465-1.597-5.704-5.723-1.574-2.005-6.272-7.407-15.115-3.157l-2.559-1.76-.97 1.372c2.605 1.639 8.55 6.69 19.125 9.619 0 0-5.46 1.33-17.347-7.025-.201 4.784 2.327 10.206 9.109 12.083 6.781 1.875 13.461-5.409 13.461-5.409"
      opacity=".4"
    />
    <path
      fill="currentColor"
      d="M455.846 28.298c-.443.184-.625 4.47-4.267 11.66-1.77 3.493-6.242 13.544 5.419 23.1l-.79 4.706 2.541.46c.591-4.692 3.765-16.251.976-32.88 0 0 5.399 6.74 1.482 28.72 6.793-2.828 12.702-9.87 10.912-20.532-1.792-10.661-16.273-15.234-16.273-15.234M435.236 29.038c.442.184.624 4.47 4.266 11.66 1.77 3.493 6.243 13.545-5.418 23.1l.79 4.706-2.542.46c-.59-4.692-3.764-16.251-.975-32.88 0 0-5.399 6.74-1.483 28.72-6.793-2.828-12.702-9.87-10.911-20.532 1.791-10.661 16.273-15.234 16.273-15.234"
      opacity=".85"
    />
    <path
      fill="currentColor"
      d="M474.609 52.144c-.156-.244-2.721.097-7.373-1.313-2.26-.686-8.699-2.29-13.154 5.638l-2.878.023-.007 1.558c2.848-.14 10.047.534 19.633-2.864 0 0-3.438 3.913-16.904 3.889 2.39 3.739 7.192 6.511 13.338 4.33s7.345-11.261 7.345-11.261"
      opacity=".5"
    />
    <path
      fill="currentColor"
      d="M495.373 23.312c-.429-.057-2.511 3.22-8.617 7.205-2.967 1.937-11.019 7.79-6.204 20.552l-2.749 3.33 1.784 1.51c2.585-3.41 10.301-11.031 15.639-25.323 0 0 1.181 7.724-11.831 23.175 6.602.858 14.417-1.987 17.837-11.152s-5.859-19.298-5.859-19.298"
      opacity=".65"
    />
    <path
      fill="currentColor"
      d="M471.461 71.868c-.101-.319-3.072-.706-7.852-3.678-2.323-1.444-9.044-5.167-16.402 2.364l-3.227-.836-.474 1.74c3.228.697 11.078 3.608 22.817 2.68 0 0-5.018 3.346-20.072-.716 1.553 4.898 6.093 9.438 13.621 8.841 7.526-.597 11.589-10.395 11.589-10.395"
      opacity=".35"
    />
    <path
      fill="currentColor"
      d="M497.123 7.491c-.397.306.581 4.693-1.155 12.956-.844 4.015-2.644 15.398 11.747 21.906l.476 4.976 2.696-.223c-.674-4.908-.597-17.466-7.928-33.538 0 0 7.291 5.357 9.287 28.661 6.108-4.703 10.178-13.43 5.475-23.735-4.704-10.302-20.598-11.003-20.598-11.003"
      opacity=".9"
    />
    <path
      fill="currentColor"
      d="M508.208 53.982c-.185-.202-2.522.538-7.094-.013-2.222-.267-8.493-.704-11.345 7.425l-2.682.495.25 1.455c2.635-.6 9.462-1.155 17.847-5.903 0 0-2.565 4.217-15.132 6.41 2.845 3.095 7.782 4.891 13.157 1.846s4.999-11.716 4.999-11.716"
      opacity=".55"
    />
    <path
      fill="currentColor"
      d="M499.173 8.347c-.386.086-1.149 3.544-5.14 8.866-1.939 2.586-7.015 10.115 1.094 19.554l-1.317 3.712 2 .738c1.153-3.73 5.389-12.67 5.506-26.588 0 0 3.422 6.253-2.911 23.558 5.927-1.324 11.739-6.201 11.812-15.125S499.173 8.347 499.173 8.347"
      opacity=".75"
    />
    <path
      fill="currentColor"
      d="M512.265 61.632c.049-.37-2.768-2.159-6.194-7.408-1.665-2.55-6.696-9.472-17.667-5.333l-2.863-2.363-1.298 1.533c2.931 2.223 9.483 8.856 21.768 13.444 0 0-6.639 1.016-19.921-10.17-.738 5.675 1.708 12.394 9.586 15.334s16.589-5.037 16.589-5.037"
      opacity=".4"
    />
    <path
      fill="currentColor"
      d="M541.289 15.053c-.463.021-2.048 3.861-7.743 9.196-2.767 2.593-10.165 10.257-2.719 22.813l-2.278 4.02 2.16 1.26c2.091-4.073 8.807-13.54 11.777-29.594 0 0 2.68 7.92-8.163 26.622 7.117-.322 14.826-4.773 16.727-15.067 1.901-10.293-9.761-19.25-9.761-19.25"
      opacity=".85"
    />
    <path
      fill="currentColor"
      d="M520.545 58.164c-.224-.205-2.74.84-7.854.674-2.485-.081-9.469.042-11.838 9.317l-2.92.808.417 1.586c2.858-.92 10.361-2.195 19.182-8.262 0 0-2.43 4.915-16.128 8.56 3.449 3.15 9.087 4.66 14.742.769 5.654-3.891 4.399-13.452 4.399-13.452M463.783 54.597c.224.205 2.74-.84 7.854-.674 2.485.081 9.469-.043 11.838-9.317l2.92-.808-.417-1.586c-2.858.92-10.361 2.195-19.182 8.262 0 0 2.43-4.915 16.128-8.56-3.449-3.15-9.087-4.66-14.742-.769-5.654 3.891-4.399 13.452-4.399 13.452"
      opacity=".6"
    />
    <path
      fill="currentColor"
      d="M544.386 14.48c-.391.205-.214 4.15-2.978 11.036-1.343 3.346-4.638 12.924 6.824 20.752l-.348 4.379 2.368.218c.165-4.35 2.148-15.207-1.743-30.234 0 0 5.492 5.748 3.664 26.22 6.003-3.137 10.857-10.07 8.359-19.705s-16.146-12.665-16.146-12.665"
      opacity=".45"
    />
    <path
      fill="currentColor"
      d="M547.175 38.232c-.056-.253-2.318-.75-5.797-3.36-1.691-1.269-6.614-4.587-12.786.715l-2.427-.861-.482 1.307c2.438.754 8.284 3.524 17.384 3.6 0 0-4.088 2.238-15.403-1.903.866 3.875 4.055 7.676 9.889 7.723s9.622-7.221 9.622-7.221M452.887 58.709c-.056-.253-2.318-.751-5.797-3.36-1.691-1.269-6.614-4.587-12.786.715l-2.427-.861-.482 1.307c2.438.754 8.284 3.524 17.384 3.6 0 0-4.088 2.238-15.403-1.904.866 3.876 4.055 7.676 9.889 7.724 5.834.047 9.622-7.221 9.622-7.221M471.185 60.709c.056-.253 2.317-.751 5.797-3.36 1.691-1.269 6.614-4.587 12.785.715l2.427-.861.483 1.307c-2.438.754-8.285 3.524-17.384 3.6 0 0 4.088 2.238 15.403-1.904-.866 3.876-4.055 7.676-9.89 7.724-5.834.047-9.621-7.221-9.621-7.221"
      opacity=".8"
    />
    <path
      fill="currentColor"
      d="M553.671 37.822c-.487-.02-2.495 3.848-8.934 8.904-3.13 2.456-11.562 9.79-4.929 23.594l-2.748 3.994 2.143 1.515c2.558-4.067 10.443-13.347 15.014-29.855 0 0 2.077 8.524-10.965 27.079 7.468.314 15.932-3.633 18.861-14.219 2.928-10.584-8.442-21.012-8.442-21.012"
      opacity=".5"
    />
    <path
      fill="currentColor"
      d="M566.703 54.775c-.162-.31-3.292-.17-8.753-2.36-2.653-1.066-10.249-3.68-16.457 5.41l-3.474-.275-.173 1.878c3.451.131 12.061 1.704 23.979-1.383 0 0-4.559 4.356-20.796 2.906 2.489 4.762 7.987 8.612 15.629 6.63 7.641-1.981 10.045-12.806 10.045-12.806M635.58 49.873c-.162-.31-3.291-.17-8.752-2.36-2.654-1.066-10.25-3.68-16.458 5.41l-3.473-.275-.173 1.878c3.45.131 12.06 1.704 23.979-1.383 0 0-4.56 4.356-20.797 2.906 2.489 4.762 7.987 8.612 15.629 6.63 7.641-1.981 10.045-12.806 10.045-12.806"
      opacity=".7"
    />
    <path
      fill="currentColor"
      d="M569.602 6.145c-.308.283.823 3.854-.018 10.839-.409 3.394-1.077 12.975 11.343 17.333l.756 4.096 2.223-.381c-.917-4.025-1.765-14.456-9.018-27.266 0 0 6.442 3.918 9.792 23.119 4.729-4.348 7.474-11.89 2.821-20.102s-17.899-7.638-17.899-7.638"
      opacity=".35"
    />
    <path
      fill="currentColor"
      d="M556.518 73.129c-.014-.319-2.658-1.41-6.331-5.331-1.785-1.906-7.062-7-15.707-1.873l-2.768-1.568-.868 1.487c2.805 1.44 9.323 6.064 20.377 8.109 0 0-5.454 1.845-18.331-5.62.222 4.9 3.287 10.208 10.375 11.517 7.087 1.309 13.253-6.721 13.253-6.721M530.271 51.626c-.014-.319-2.659-1.41-6.332-5.331-1.785-1.905-7.062-6.999-15.707-1.872l-2.768-1.569-.867 1.488c2.804 1.44 9.322 6.063 20.376 8.108 0 0-5.454 1.845-18.33-5.62.222 4.9 3.286 10.208 10.374 11.517 7.087 1.309 13.254-6.72 13.254-6.72M664.271 21.346c-.014.32-2.659 1.41-6.332 5.332-1.785 1.905-7.062 6.998-15.707 1.872l-2.768 1.568-.867-1.487c2.804-1.44 9.322-6.064 20.376-8.108 0 0-5.454-1.846-18.33 5.62.222-4.9 3.286-10.208 10.374-11.517 7.087-1.31 13.254 6.72 13.254 6.72M641.156 45.346c.015.32 2.659 1.41 6.332 5.332 1.785 1.905 7.062 6.999 15.707 1.872l2.768 1.568.867-1.487c-2.804-1.44-9.322-6.064-20.376-8.108 0 0 5.454-1.846 18.33 5.62-.222-4.9-3.286-10.208-10.374-11.517-7.087-1.31-13.254 6.72-13.254 6.72"
      opacity=".9"
    />
    <path
      fill="currentColor"
      d="M647.226 54.466c-.235.216.628 2.942-.014 8.277-.313 2.592-.822 9.908 8.662 13.236l.577 3.128 1.698-.291c-.7-3.074-1.348-11.04-6.887-20.821 0 0 4.919 2.991 7.478 17.654 3.611-3.32 5.707-9.08 2.154-15.35-3.553-6.271-13.668-5.833-13.668-5.833"
      opacity=".9"
    />
    <path
      fill="currentColor"
      d="M603.633 30.607c-.498-.11-3.271 3.513-10.829 7.555-3.673 1.963-13.7 7.992-9.37 23.43l-3.56 3.617 1.934 1.95C585.184 63.434 595 55.3 602.715 39.11c0 0 .592 9.166-16.228 25.924 7.643 1.681 17.086-.849 22.03-11.23 4.943-10.38-4.884-23.197-4.884-23.197"
      opacity=".55"
    />
    <path
      fill="currentColor"
      d="M595.319 39.311c-.108-.26-2.625-.367-6.847-2.505-2.052-1.04-7.955-3.666-13.567 3.182l-2.764-.464-.27 1.492c2.755.347 9.544 2.211 19.311.573 0 0-3.959 3.171-16.868.871 1.661 3.99 5.797 7.46 12.059 6.408s8.946-9.557 8.946-9.557"
      opacity=".75"
    />
    <path
      fill="currentColor"
      d="M586.6 32.79c-.372.155-.525 3.762-3.589 9.81-1.489 2.938-5.252 11.394 4.558 19.433l-.665 3.96 2.139.386c.496-3.947 3.166-13.672.82-27.662 0 0 4.542 5.67 1.247 24.162 5.715-2.378 10.686-8.303 9.18-17.273S586.6 32.791 586.6 32.791"
      opacity=".4"
    />
    <path
      fill="currentColor"
      d="M615.622 54.012c-.222-.29-3.413.422-9.422-.84-2.92-.614-11.199-1.924-15.932 8.542l-3.619.347.163 1.96c3.569-.49 12.702-.434 24.391-5.765 0 0-3.896 5.302-20.844 6.754 3.42 4.442 9.768 7.402 17.261 3.982s8.002-14.98 8.002-14.98"
      opacity=".85"
    />
    <path
      fill="currentColor"
      d="M621.455 7.482c-.397.253.159 4.44-2.142 12.03-1.118 3.687-3.735 14.193 9.199 21.461l.039 4.696 2.541.012c-.229-4.648.871-16.394-4.673-32.034 0 0 6.384 5.61 6.344 27.581 6.101-3.9 10.625-11.735 7.067-21.763-3.558-10.026-18.375-11.983-18.375-11.983"
      opacity=".5"
    />
    <path
      fill="currentColor"
      d="M604.863 71.1c-.09-.283-2.723-.627-6.96-3.26-2.059-1.28-8.016-4.581-14.539 2.095l-2.859-.742-.421 1.543c2.862.617 9.819 3.198 20.225 2.376 0 0-4.448 2.965-17.792-.636 1.377 4.342 5.401 8.366 12.073 7.837 6.672-.53 10.273-9.214 10.273-9.214M582.322 44.44c-.089-.284-2.723-.627-6.96-3.261-2.059-1.28-8.016-4.58-14.538 2.096l-2.86-.742-.42 1.543c2.861.617 9.819 3.198 20.224 2.375 0 0-4.448 2.966-17.791-.635 1.377 4.342 5.401 8.366 12.073 7.837 6.671-.53 10.272-9.214 10.272-9.214"
      opacity=".65"
    />
    <path
      fill="currentColor"
      d="M640.016 24.114c-.422.056-1.564 3.695-6.345 9.03-2.324 2.592-8.476 10.193-.662 21.08l-1.761 3.859 2.076.98c1.586-3.893 6.971-13.088 8.402-28.008 0 0 3.085 7.03-5.334 25 6.483-.864 13.176-5.551 14.092-15.118.914-9.566-10.468-16.823-10.468-16.823"
      opacity=".35"
    />
    <path
      fill="currentColor"
      d="M638.291 43.67c-.043-.324-2.837-1.201-6.934-4.872-1.99-1.784-7.827-6.509-16.186-.509l-2.963-1.352-.753 1.594c2.989 1.218 10.05 5.353 21.506 6.452 0 0-5.398 2.369-19.197-4.096.664 4.978 4.263 10.118 11.609 10.82 7.345.703 12.918-8.037 12.918-8.037"
      opacity=".9"
    />
    <path
      fill="currentColor"
      d="M645.019 41.19c-.49-.064-2.864 3.672-9.827 8.217-3.383 2.209-12.565 8.883-7.075 23.436l-3.134 3.797 2.034 1.722c2.948-3.887 11.747-12.579 17.834-28.876 0 0 1.347 8.808-13.491 26.427 7.528.978 16.441-2.266 20.341-12.717 3.899-10.45-6.682-22.006-6.682-22.006"
      opacity=".6"
    />
    <path
      fill="currentColor"
      d="M651.408 43.367c-.143-.225-2.506.09-6.791-1.21-2.082-.631-8.013-2.108-12.116 5.194l-2.651.021-.006 1.435c2.624-.13 9.254.492 18.084-2.638 0 0-3.167 3.604-15.571 3.581 2.202 3.444 6.625 5.998 12.286 3.99s6.765-10.373 6.765-10.373"
      opacity=".45"
    />
    <g clip-path="url(#b)">
      <path
        fill="currentColor"
        d="M93.399 36.81c-1.818-2.742-7.412-3.305-10.194-3.904-.927-.2-1.72-1.274-1.72-1.274s-.731 1.487-.898 4.049c-.045.702.394 1.958.367 2.715-.037 1.08-.47 2.42-.43 3.463.046 1.161.59 2.006 1.092 2.763 2.422 3.656 6.828-2.492 6.828-2.492 2.165 3.093 1.825 7.125 1.82 7.173l.527.05c.019-.203.355-4.173-1.795-7.368 1.664-.475 6.416-2.136 4.403-5.174"
      />
    </g>
    <g clip-path="url(#c)">
      <path
        fill="currentColor"
        d="M282.715 41.81c1.818-2.742 7.412-3.305 10.194-3.904.927-.2 1.721-1.274 1.721-1.274s.73 1.487.897 4.049c.045.702-.394 1.958-.367 2.715.037 1.08.47 2.42.429 3.463-.045 1.161-.589 2.006-1.09 2.763-2.423 3.656-6.829-2.492-6.829-2.492h-.001c-2.164 3.093-1.824 7.125-1.82 7.173l-.526.05c-.019-.203-.355-4.173 1.796-7.368-1.665-.475-6.417-2.136-4.404-5.174"
      />
    </g>
    <g clip-path="url(#d)">
      <path
        fill="currentColor"
        d="M514.715 39.113c1.818 2.742 7.412 3.305 10.194 3.905.928.2 1.721 1.273 1.721 1.273s.73-1.486.897-4.048c.045-.702-.394-1.958-.367-2.715.037-1.08.47-2.42.429-3.463-.045-1.162-.589-2.007-1.09-2.763-2.423-3.656-6.828 2.492-6.828 2.492h-.002c-2.163-3.093-1.824-7.126-1.82-7.174l-.526-.05c-.019.204-.355 4.174 1.796 7.369-1.665.474-6.417 2.136-4.404 5.174"
      />
    </g>
    <g fill="currentColor" clip-path="url(#e)">
      <path
        d="M357.866 29.088c-.335-.136-.87-.418-1.508-.588-.637-.18-1.499-.48-2.378-.555a20 20 0 0 0-2.987-.067c-1.071.088-2.158.315-3.323.616-1.164.3-2.229.8-3.367 1.348-1.11.566-2.122 1.271-3.135 2.04a25 25 0 0 0-2.698 2.608c-.774.96-1.545 1.948-2.138 3.003-.611 1.047-1.139 2.125-1.52 3.228-.817 2.183-1.142 4.429-1.176 6.43.003 1.014.063 1.956.189 2.822.109.86.325 1.654.491 2.296.067.301.162.59.255.844.163-.343.341-.706.539-1.102.986-1.954 2.421-4.499 4.101-6.882a41 41 0 0 1 2.648-3.353l1.365-1.417c.465-.417.903-.813 1.306-1.177l1.187-.892c.34-.282.695-.445.961-.615l.853-.504-.811.569c-.25.191-.586.377-.902.683l-1.1.969-1.192 1.257-1.224 1.492a39 39 0 0 0-2.328 3.486c-1.458 2.452-2.66 5.045-3.468 7.02a53 53 0 0 0-.584 1.491c.347-.092.786-.19 1.261-.365.601-.209 1.378-.424 2.131-.732a33 33 0 0 0 2.422-1.04c.843-.39 1.663-.85 2.504-1.332.84-.48 1.635-1.03 2.425-1.597.768-.588 1.53-1.182 2.221-1.84.684-.676 1.374-1.31 1.97-2.043a24.3 24.3 0 0 0 3.124-4.496c.444-.747.812-1.617 1.173-2.404.366-.78.676-1.646.985-2.44.311-.78.599-1.57.854-2.338.276-.793.518-1.483.718-2.05.231-.565.376-1.156.506-1.503.12-.392.182-.6.182-.6s-.187-.113-.532-.27M330.675 46.653a41 41 0 0 1-3.353-2.65c-.491-.471-.966-.93-1.416-1.363-.419-.465-.812-.904-1.179-1.306-.327-.435-.624-.836-.891-1.188-.282-.34-.444-.694-.614-.96l-.505-.853.571.81c.188.25.375.586.683.902l.969 1.101c.39.368.811.77 1.257 1.19.473.39.975.8 1.492 1.224a40 40 0 0 0 3.485 2.328c.509.305 1.025.572 1.54.847.17-2.752.735-5.473 1.581-7.95-.485-.627-.976-1.244-1.517-1.808-.676-.685-1.307-1.375-2.043-1.971a24.4 24.4 0 0 0-4.495-3.125c-.747-.443-1.618-.811-2.405-1.172-.778-.366-1.643-.677-2.438-.984-.78-.31-1.569-.598-2.339-.852l-2.051-.72c-.564-.23-1.156-.376-1.502-.507l-.599-.18s-.116.188-.274.532c-.135.335-.418.87-.589 1.508-.179.636-.479 1.498-.552 2.377a19.5 19.5 0 0 0-.067 2.99c.085 1.069.312 2.154.614 3.321.302 1.163.801 2.23 1.347 3.368.567 1.108 1.272 2.12 2.044 3.135.793.959 1.672 1.867 2.607 2.7.958.772 1.948 1.542 3.004 2.137 1.045.612 2.124 1.14 3.226 1.52 2.182.818 4.428 1.142 6.431 1.177.085 0 .158-.009.239-.011a25.3 25.3 0 0 1-.265-4.272c-.665-.418-1.332-.827-1.996-1.295"
      />
    </g>
    <g fill="currentColor" clip-path="url(#f)">
      <path
        d="M595.866 49.088c-.335-.136-.87-.418-1.508-.588-.637-.18-1.499-.48-2.378-.554a20 20 0 0 0-2.987-.068c-1.071.088-2.158.315-3.323.616-1.164.3-2.229.8-3.367 1.348-1.11.566-2.122 1.272-3.135 2.04a25 25 0 0 0-2.698 2.608c-.774.96-1.545 1.948-2.138 3.003-.611 1.047-1.139 2.125-1.52 3.228-.817 2.183-1.142 4.429-1.176 6.43.003 1.014.063 1.956.189 2.822.109.86.325 1.654.491 2.296.067.301.162.59.255.844.163-.344.341-.706.539-1.103.986-1.953 2.421-4.498 4.101-6.881a41 41 0 0 1 2.648-3.354l1.365-1.416c.465-.417.903-.813 1.306-1.177l1.187-.892c.34-.282.695-.445.961-.615l.853-.504-.811.569c-.25.191-.586.377-.902.683l-1.1.969-1.192 1.257-1.224 1.492a39 39 0 0 0-2.328 3.485c-1.458 2.453-2.66 5.046-3.468 7.02a53 53 0 0 0-.584 1.492c.347-.092.786-.19 1.261-.365.601-.209 1.378-.424 2.131-.732a33 33 0 0 0 2.422-1.04c.843-.39 1.663-.85 2.504-1.332.84-.48 1.635-1.03 2.425-1.597.768-.588 1.53-1.182 2.221-1.84.684-.676 1.374-1.31 1.97-2.043a24.3 24.3 0 0 0 3.124-4.496c.444-.747.812-1.617 1.173-2.404.366-.78.676-1.646.985-2.44.311-.78.599-1.57.854-2.338.276-.793.518-1.483.718-2.05.231-.565.376-1.156.506-1.503.12-.392.182-.6.182-.6s-.187-.112-.532-.27M568.675 66.653a41 41 0 0 1-3.353-2.65c-.491-.471-.966-.93-1.416-1.363-.419-.465-.812-.904-1.179-1.306-.327-.435-.624-.836-.891-1.188-.282-.34-.444-.694-.614-.96l-.505-.853.571.81c.188.25.375.586.683.902l.969 1.101c.39.368.811.77 1.257 1.19.473.39.975.8 1.492 1.224a40 40 0 0 0 3.485 2.328c.509.305 1.025.572 1.54.847.17-2.752.735-5.473 1.581-7.95-.485-.627-.976-1.244-1.517-1.808-.676-.685-1.307-1.375-2.043-1.971a24.4 24.4 0 0 0-4.495-3.125c-.747-.443-1.618-.812-2.405-1.172-.778-.366-1.643-.677-2.438-.984-.78-.31-1.569-.598-2.339-.852l-2.051-.72c-.564-.23-1.156-.376-1.502-.507l-.599-.18s-.116.188-.274.532c-.135.335-.418.87-.589 1.508-.179.636-.479 1.498-.552 2.377a19.5 19.5 0 0 0-.067 2.99c.085 1.069.312 2.154.614 3.321.302 1.163.801 2.23 1.347 3.368.567 1.108 1.272 2.12 2.044 3.135.793.959 1.672 1.867 2.607 2.7.958.771 1.948 1.542 3.004 2.137 1.045.612 2.124 1.14 3.226 1.52 2.182.818 4.428 1.142 6.431 1.177.085 0 .158-.008.239-.011a25.3 25.3 0 0 1-.265-4.272c-.665-.418-1.332-.827-1.996-1.295"
      />
    </g>
    <g fill="currentColor" clip-path="url(#g)">
      <path
        d="M595.866 49.088c-.335-.136-.87-.418-1.508-.588-.637-.18-1.499-.48-2.378-.554a20 20 0 0 0-2.987-.068c-1.071.088-2.158.315-3.323.616-1.164.3-2.229.8-3.367 1.348-1.11.566-2.122 1.272-3.135 2.04a25 25 0 0 0-2.698 2.608c-.774.96-1.545 1.948-2.138 3.003-.611 1.047-1.139 2.125-1.52 3.228-.817 2.183-1.142 4.429-1.176 6.43.003 1.014.063 1.956.189 2.822.109.86.325 1.654.491 2.296.067.301.162.59.255.844.163-.344.341-.706.539-1.103.986-1.953 2.421-4.498 4.101-6.881a41 41 0 0 1 2.648-3.354l1.365-1.416c.465-.417.903-.813 1.306-1.177l1.187-.892c.34-.282.695-.445.961-.615l.853-.504-.811.569c-.25.191-.586.377-.902.683l-1.1.969-1.192 1.257-1.224 1.492a39 39 0 0 0-2.328 3.485c-1.458 2.453-2.66 5.046-3.468 7.02a53 53 0 0 0-.584 1.492c.347-.092.786-.19 1.261-.365.601-.209 1.378-.424 2.131-.732a33 33 0 0 0 2.422-1.04c.843-.39 1.663-.85 2.504-1.332.84-.48 1.635-1.03 2.425-1.597.768-.588 1.53-1.182 2.221-1.84.684-.676 1.374-1.31 1.97-2.043a24.3 24.3 0 0 0 3.124-4.496c.444-.747.812-1.617 1.173-2.404.366-.78.676-1.646.985-2.44.311-.78.599-1.57.854-2.338.276-.793.518-1.483.718-2.05.231-.565.376-1.156.506-1.503.12-.392.182-.6.182-.6s-.187-.112-.532-.27M568.675 66.653a41 41 0 0 1-3.353-2.65c-.491-.471-.966-.93-1.416-1.363-.419-.465-.812-.904-1.179-1.306-.327-.435-.624-.836-.891-1.188-.282-.34-.444-.694-.614-.96l-.505-.853.571.81c.188.25.375.586.683.902l.969 1.101c.39.368.811.77 1.257 1.19.473.39.975.8 1.492 1.224a40 40 0 0 0 3.485 2.328c.509.305 1.025.572 1.54.847.17-2.752.735-5.473 1.581-7.95-.485-.627-.976-1.244-1.517-1.808-.676-.685-1.307-1.375-2.043-1.971a24.4 24.4 0 0 0-4.495-3.125c-.747-.443-1.618-.812-2.405-1.172-.778-.366-1.643-.677-2.438-.984-.78-.31-1.569-.598-2.339-.852l-2.051-.72c-.564-.23-1.156-.376-1.502-.507l-.599-.18s-.116.188-.274.532c-.135.335-.418.87-.589 1.508-.179.636-.479 1.498-.552 2.377a19.5 19.5 0 0 0-.067 2.99c.085 1.069.312 2.154.614 3.321.302 1.163.801 2.23 1.347 3.368.567 1.108 1.272 2.12 2.044 3.135.793.959 1.672 1.867 2.607 2.7.958.771 1.948 1.542 3.004 2.137 1.045.612 2.124 1.14 3.226 1.52 2.182.818 4.428 1.142 6.431 1.177.085 0 .158-.008.239-.011a25.3 25.3 0 0 1-.265-4.272c-.665-.418-1.332-.827-1.996-1.295"
      />
    </g>
    <g fill="currentColor" clip-path="url(#h)">
      <path
        d="M309.043 26.493c-.223-.09-.58-.28-1.005-.393-.425-.12-1-.319-1.585-.37a13 13 0 0 0-1.992-.044c-.714.058-1.438.21-2.215.41s-1.487.534-2.245.899c-.74.377-1.415.848-2.09 1.36a16.4 16.4 0 0 0-1.798 1.739c-.517.64-1.03 1.299-1.426 2.002a12.3 12.3 0 0 0-1.014 2.152c-.544 1.455-.761 2.953-.783 4.286q.002 1.016.125 1.882c.074.573.217 1.103.328 1.53.045.201.108.393.17.563a37.692 37.692 0 0 1 3.093-5.323 27 27 0 0 1 1.766-2.235l.909-.944c.31-.279.603-.542.871-.785l.792-.595c.226-.188.463-.297.64-.41l.569-.336-.541.38c-.166.127-.391.251-.601.455l-.733.646-.795.838-.816.995a26 26 0 0 0-1.552 2.323c-.972 1.635-1.773 3.364-2.312 4.68-.152.37-.279.702-.389.995.231-.062.524-.127.84-.244.401-.14.919-.283 1.421-.488a21.921 21.921 0 0 0 3.284-1.582c.56-.32 1.09-.686 1.617-1.064.511-.392 1.019-.788 1.48-1.226.456-.45.916-.874 1.314-1.362a16.2 16.2 0 0 0 2.083-2.998c.295-.498.541-1.078.781-1.602.244-.52.451-1.098.657-1.627.207-.52.4-1.046.569-1.56.184-.527.345-.988.479-1.366.154-.376.25-.77.337-1.001l.121-.4s-.124-.075-.354-.18M290.915 38.203a27 27 0 0 1-2.235-1.767l-.944-.909q-.418-.466-.786-.87c-.218-.29-.416-.557-.594-.792-.188-.227-.295-.463-.409-.64l-.337-.57.381.541c.125.167.25.39.455.601l.646.734.838.794.995.816c.718.531 1.502 1.07 2.323 1.552.34.203.684.381 1.027.564.113-1.835.49-3.648 1.054-5.3a15 15 0 0 0-1.011-1.205c-.451-.457-.872-.917-1.362-1.314a16.3 16.3 0 0 0-2.997-2.083c-.498-.296-1.079-.541-1.603-.782-.519-.244-1.096-.451-1.626-.656a28 28 0 0 0-1.559-.568l-1.367-.48c-.377-.154-.771-.25-1.002-.338l-.399-.12s-.077.125-.183.355c-.09.223-.278.58-.392 1.005-.12.424-.32.999-.368 1.585a13 13 0 0 0-.045 1.993c.056.713.208 1.436.409 2.214.202.776.534 1.487.898 2.246.378.738.848 1.413 1.363 2.09.529.639 1.115 1.244 1.738 1.799.639.515 1.299 1.029 2.003 1.425.696.408 1.416.76 2.15 1.014 1.455.545 2.953.761 4.287.785.057 0 .106-.006.16-.008a17 17 0 0 1-.177-2.848c-.443-.279-.888-.552-1.331-.864"
      />
    </g>
  </g>
  <defs>
    <clipPath id="a">
      <path fill="#fff" d="M0 0h657.52v95.343H0z" />
    </clipPath>
    <clipPath id="b">
      <path
        fill="#fff"
        d="m73.397 36.302 17.32-10 10 17.32-17.32 10z"
      />
    </clipPath>
    <clipPath id="c">
      <path
        fill="#fff"
        d="m302.717 41.302-17.32-10-10 17.32 17.32 10z"
      />
    </clipPath>
    <clipPath id="d">
      <path
        fill="#fff"
        d="m534.717 39.622-17.32 10-10-17.32 17.32-10z"
      />
    </clipPath>
    <clipPath id="e">
      <path fill="#fff" d="M313.397 18.302h45v45h-45z" />
    </clipPath>
    <clipPath id="f">
      <path fill="#fff" d="M551.397 38.302h45v45h-45z" />
    </clipPath>
    <clipPath id="g">
      <path fill="#fff" d="M551.397 38.302h45v45h-45z" />
    </clipPath>
    <clipPath id="h">
      <path fill="#fff" d="M279.397 19.302h30v30h-30z" />
    </clipPath>
  </defs>
</svg>
